<?xml version="1.0" encoding="utf-8"?>
<!-- Generator: Adobe Illustrator 16.0.4, SVG Export Plug-In . SVG Version: 6.00 Build 0)  -->
<!DOCTYPE svg PUBLIC "-//W3C//DTD SVG 1.1//EN" "http://www.w3.org/Graphics/SVG/1.1/DTD/svg11.dtd">
<svg version="1.1" id="Layer_2" xmlns="http://www.w3.org/2000/svg" xmlns:xlink="http://www.w3.org/1999/xlink" x="0px" y="0px"
	 width="197px" height="276px" viewBox="0 0 197 276" enable-background="new 0 0 197 276" xml:space="preserve">
<path fill="#81667A" d="M189.529,211.902c-0.359-31-38.568-37.246-38.568-37.246l-48.691,4.053l-52.247-4.053
	c0,0-40.998,6.246-41.385,37.246C8.251,242.902,1.001,276,1.001,276h98.94h0.494h3.804h0.528H197
	C197,276,189.891,242.902,189.529,211.902z"/>
<polygon fill="#FFFFFF" points="29.667,186.355 20,183.534 12,188.602 12,195.5 15.667,200.239 23.574,199.117 29.667,202.514 
	32,207.833 30.333,216.833 34.875,221.75 38.625,223.875 43.375,222.5 49.25,220.75 53,221.975 56,225.328 57.667,232.5 
	64.622,238.5 71.75,237.875 79.25,231.75 85.25,232.625 89,237.25 95.625,243.25 101.125,242.625 107.25,235.5 112.375,231.375 
	118.625,232.5 123.75,236.875 129.5,238.125 136.125,233.5 138.375,225.328 146.875,221.375 153.125,223.375 159.75,223.25 
	164.375,216.125 163.25,207.75 166.75,202 172.75,200.631 176.875,200.239 182.875,194.875 185,187.875 179.125,184.125 
	169.5,185.125 164.125,191.125 152.125,192.5 149.875,198.625 148.968,205.625 121.125,214.75 78.875,214 53,202 36,187.5 "/>
<path d="M76.94,197.562c-0.762,1.582-1.842,4.088-3.196,6.446c-0.32,0.56-1.681,1.015-2.333,0.815
	c-0.64-0.194-1.09-1.24-1.419-1.995c-0.185-0.425,0.131-1.026,0.067-1.529c-0.109-0.872-0.339-1.731-0.518-2.595
	c-0.785,0.508-1.75,0.872-2.324,1.548c-2.144,2.519-4.149,5.144-6.229,7.712c-0.565,0.7-1.088,1.574-1.852,1.944
	c-0.98,0.476-2.438,1.024-3.237,0.649c-1.437-0.675-1.098-2.262-0.286-3.3c3.923-5.021,7.865-10.034,11.992-14.899
	c1.435-1.691,3.599-2.325,5.854-1.265C75.751,192.175,76.782,194.073,76.94,197.562z"/>
<path d="M145.592,187.5c-0.726-0.116-1.031-0.212-1.333-0.202c-0.937,0.031-1.87,0.103-2.806,0.158
	c0.486,0.922,0.793,2.003,1.492,2.735c1.929,2.014,4.074,3.832,6.025,5.824c0.95,0.971,1.907,2.243,0.672,3.532
	c-1.223,1.272-2.662,0.562-3.701-0.342c-3.824-3.325-7.672-6.638-11.275-10.179c-2.24-2.2-2.271-4.401-0.747-6.437
	c1.673-2.235,3.999-2.94,6.937-1.753c2.026,0.822,3.967,1.918,5.767,3.139c0.538,0.364,0.785,1.645,0.584,2.35
	C147.043,186.895,146,187.227,145.592,187.5z"/>
<path fill="#00DEFE" d="M181.475,183.186c-4.984-1.468-10.052-2.756-14.923-4.48c-8.968-3.176-17.745-6.78-26.741-9.887
	c-5.276-1.822-7.27-4.928-6.99-9.452h-20.213c-3.289,4.643-8.522,6.385-15.231,5.983c-6.593,0.599-11.386-1.582-14.649-5.983H62.951
	c0.493,3.519-1.154,7.237-4.657,9.011c-5.609,2.835-11.405,5.414-17.286,7.778c-8.442,3.396-17.359,5.524-26.436,7.141
	c-3.566,0.638-5.573,2.624-6.06,5.815c-0.757,4.966,1.359,8.919,5.583,12.053c2.373,1.756,5.024,2.426,8.15,1.695
	c3.084-0.723,5.387,0.195,7.175,2.548c1.657,2.179,1.457,4.428,0.167,6.657c-1.415,2.446-1.735,4.938-0.462,7.492
	c2.51,5.039,10.169,9.68,17.248,5.262c2.118-1.322,4.453-1.664,6.813-0.391c2.326,1.254,2.615,3.231,2.607,5.443
	c-0.007,1.605,0.064,3.382,0.805,4.789c3.871,7.354,13.503,8.363,19.265,2.143c0.135-0.146,0.275-0.293,0.411-0.438
	c1.657-1.777,3.67-2.789,6.351-2.281c2.663,0.505,4.026,2.057,4.74,4.354c1.651,5.311,6.911,8.117,12.959,6.971
	c4.479-0.852,7.187-3.358,8.216-7.328c0.591-2.282,2.259-3.645,4.791-4.064c2.394-0.396,4.298,0.506,5.812,2.127
	c0.453,0.485,0.828,1.032,1.307,1.498c2.853,2.783,6.253,4.143,10.51,3.027c6.014-1.574,9.249-5.6,9.018-11.143
	c-0.199-4.836,4.014-7.235,8.819-5.02c0.819,0.379,1.563,0.982,2.429,1.17c1.76,0.383,3.604,0.875,5.365,0.749
	c6.889-0.487,13.942-8.376,9.376-14.911c-1.487-2.131-1.114-4.529,0.738-6.572c1.839-2.029,4.151-2.746,7.021-2.014
	c2.4,0.615,4.618,0.182,6.717-1.006c3.213-1.816,5.318-4.406,6.398-7.578C188.736,188.773,186.704,184.725,181.475,183.186z
	 M80.9,221.956c2.594-2.062,5.057-1.772,6.928,0.853c0.721,1.01,1.249,2.129,1.933,3.164c3.813,5.768,12.424,5.783,16.26,0.027
	c0.726-1.085,1.258-2.277,2.039-3.327c1.86-2.496,4.297-2.741,6.809-0.755c0.583,0.462,1.135,0.961,1.658,1.477
	c2.916,2.85,6.56,3.221,10.365,2.06c3.825-1.165,5.918-3.642,6.225-7.392c0.527-6.428,2.834-7.552,9.271-4.629
	c3.586,1.629,6.645,0.646,9.467-1.356c3.094-2.196,4.791-4.994,3.902-8.646c-0.255-1.049-0.736-2.054-0.99-3.103
	c-0.82-3.379,1.649-6.159,5.474-5.714c5.444,0.635,8.761-1.725,11.319-5.533c2.299-3.426,6.979-3.855,10.045-0.867
	c0.545,0.533,1,1.278,1.137,1.982c0.783,4.029-3.611,8.55-8.199,8.295c-3.666-0.205-7.027-0.01-9.947,2.354
	c-4.246,3.437-5.386,7.64-3.064,12.294c1.595,3.194,1.091,5.476-1.694,7.676c-2.47,1.949-4.978,2.215-8.174,0.275
	c-6.315-3.834-12.894-0.627-15.474,3.297c-0.889,1.35-1.481,3.067-1.492,4.621c-0.02,2.979,0.107,5.795-3.817,7.003
	c-3.366,1.036-5.481,0.296-8.521-2.995c-4.106-4.451-11.021-4.796-15.516-0.645c-1.041,0.962-1.637,2.326-2.341,3.55
	c-0.481,0.838-0.675,1.815-1.206,2.623c-2.523,3.841-7.994,3.929-10.666,0.172c-0.523-0.735-0.908-1.581-1.18-2.423
	c-1.179-3.652-3.941-5.834-8.011-6.584c-4.384-0.811-7.993,0.5-10.643,3.734c-1.457,1.777-3.169,3.115-5.82,2.945
	c-4.042-0.26-6.014-2.308-5.895-6.047c0.171-5.387-2.73-8.958-8.464-10.668c-3.169-0.943-5.817-0.061-8.458,1.391
	c-4.192,2.302-8.055,1.268-10.255-2.61c-0.954-1.681-0.734-3.263,0.114-4.912c2.832-5.512,1.079-10.89-4.864-13.908
	c-1.922-0.977-4.379-1.118-6.592-1.64c-0.047,0.158,0.048-0.16,0,0c-5.316,0.289-8.556-1.276-9.339-5.973
	c-0.188-1.125,0.396-2.713,1.273-3.549c2.998-2.856,7.293-2.406,9.666,0.831c2.723,3.718,6.125,5.946,11.516,5.3
	c3.625-0.436,6.011,2.2,5.447,5.448c-0.097,0.56-0.253,1.127-0.498,1.646c-2.779,5.901,1.858,10.307,6.194,12.073
	c1.928,0.787,3.855,0.785,5.767-0.024c0.897-0.379,1.763-0.817,2.658-1.207c3.888-1.683,7.086-0.072,7.288,3.769
	c0.15,2.851,0.531,5.517,3.185,7.551"/>
<path fill="#D5D6CE" d="M148.885,138.192c-0.896-12.824-0.004-25.759-0.836-38.588c-0.988-15.238-16.994-28.878-32.773-28.883
	c-11.433-0.003-22.864-0.02-34.295,0.021c-1.551,0.006-3.108,0.269-4.648,0.488c-16.165,2.3-29.244,16.705-29.137,33.9
	c0.04,6.536,0.006,13.073,0.006,19.608c0,4.836,0.456,9.721-0.102,14.497c-0.958,8.254,2.246,15.074,7.167,21.26
	c3.408,4.285,7.139,8.484,11.39,11.971c11.805,9.68,25.765,12.526,40.862,10.409c9.683-1.356,18.469-5.116,25.487-11.696
	C141.593,162.189,149.895,152.624,148.885,138.192z"/>
<path fill="#0B7189" d="M108.77,186.343c0-2.702-0.088-5.409,0.054-8.104c0.04-0.78,0.524-1.864,1.161-2.243
	c10.057-5.961,20.332-11.492,31.902-14.284c1.178-0.283,2.396-0.441,3.604-0.592c6.095-0.758,10.296,2.37,10.654,8.342
	c0.158,2.643-0.193,5.43-0.939,7.979c-1.768,6.037-1.77,11.918,0.031,17.951c0.761,2.543,1.066,5.342,0.896,7.984
	c-0.357,5.611-4.293,9.111-9.93,8.18c-5.518-0.912-11.064-2.426-16.195-4.574c-6.697-2.801-13.035-6.428-19.432-9.867
	c-0.887-0.478-1.627-1.881-1.727-2.92C108.605,191.594,108.771,188.962,108.77,186.343z"/>
<path fill="#0B7189" d="M88.187,186.479c0,2.705,0.07,5.408-0.045,8.106c-0.031,0.728-0.416,1.759-0.988,2.097
	c-10.142,5.98-20.483,11.576-32.14,14.385c-1.346,0.326-2.746,0.5-4.131,0.602c-5.773,0.419-9.668-2.576-10.046-8.182
	c-0.184-2.723,0.143-5.607,0.917-8.232c1.756-5.954,1.743-11.748,0.019-17.703c-0.762-2.631-1.122-5.51-0.94-8.229
	c0.391-5.846,4.548-8.955,10.521-8.225c8.995,1.094,16.962,4.955,24.871,8.897c3.484,1.737,6.901,3.625,10.196,5.676
	c0.882,0.549,1.603,1.911,1.7,2.961c0.241,2.599,0.079,5.229,0.079,7.849C88.195,186.479,88.191,186.479,88.187,186.479z"/>
<path fill="#0B7189" d="M105.789,188.58c-0.001,2.715,0.074,5.434-0.02,8.146c-0.123,3.525-3.041,5.816-7.242,5.82
	c-4.24,0.002-7.256-2.238-7.332-5.73c-0.118-5.43-0.111-10.862-0.007-16.293c0.067-3.485,3.125-5.851,7.25-5.867
	c4.265-0.018,7.245,2.41,7.338,6.068C105.846,183.342,105.792,185.961,105.789,188.58z"/>
<path fill="#C2E812" d="M46.274,41.327c-0.617-10.474,2.651-16.936,10.317-20.403c7.966-3.604,15.101-1.902,23.278,5.55
	c4.141-10.389,9.756-14.932,18.492-14.957c8.879-0.025,14.555,4.51,18.773,15.064c6.3-7.028,13.947-9.381,22.972-5.721
	c7.873,3.194,11.108,9.745,10.6,20.45c10.371-3.886,17.884-2.813,23.725,3.389c5.901,6.269,6.153,13.252,0.791,23.573
	c9.662,0.351,16.764,4.389,19.191,13.706c2.387,9.161-1.629,16.008-9.953,20.721c10.234,5.187,14.28,12.041,12.475,20.956
	c-1.728,8.527-8.113,13.062-20.297,14.414c-2.875,14.707-16.984,18.134-25.619,14.715c-11.068-4.386-14.188-14.706-8.121-27.653
	c-13.635-5.943-16.694-14.208-10.35-28.276c-10.68-0.021-17.359-5.035-20.154-15.172c-3.955,3.675-8.484,5.868-14.016,5.843
	c-5.456-0.023-9.908-2.219-13.795-5.809c-3.544,10.641-8.685,14.519-20.343,15.174c3.435,5.246,4.588,10.767,2.502,16.583
	c-2.116,5.898-6.502,9.62-12.92,11.587c4.142,5.996,5.138,12.285,1.943,18.844c-2.138,4.391-5.691,7.419-10.421,9.056
	c-5.706,1.973-11.211,1.328-16.306-1.761c-5.018-3.042-7.672-7.659-8.563-13.155c-12.146-0.968-19.102-6.084-20.54-14.96
	c-1.455-8.986,3.006-16.254,12.636-20.263C3.736,97.668-0.26,90.347,2.892,80.74c2.8-8.532,9.755-12.226,18.87-12.456
	c-5.463-9.745-5.244-17.042,0.618-23.417C28.214,38.52,35.683,37.413,46.274,41.327z"/>
<path fill="#0B7189" d="M114.834,108.374c1.025-2.88,2.036-5.718,3.247-9.118c1.213,3.427,2.219,6.271,3.228,9.118
	C119.152,108.374,117.124,108.374,114.834,108.374z"/>
<path fill="#0B7189" d="M74.576,108.366c1.009-2.851,1.988-5.621,3.201-9.051c1.239,3.412,2.27,6.25,3.287,9.051
	C78.907,108.366,76.875,108.366,74.576,108.366z"/>
<path fill="#0B7189" d="M114.807,121.545c2.219,0,4.166,0,6.494,0c-0.986,2.804-1.992,5.659-3.207,9.113
	C116.872,127.272,115.855,124.459,114.807,121.545z"/>
<path fill="#0B7189" d="M74.533,121.532c2.281,0,4.225,0,6.487,0c-0.965,2.766-1.957,5.605-3.186,9.129
	C76.582,127.201,75.56,124.373,74.533,121.532z"/>
<g>
	<path fill="#81667A" d="M99.121,77.704c-7.442-1.083-14.794-1.543-21.534-4.731c-7.04-3.332-9.011-8.081-5.964-15.736
		c1.988-4.997,4.307-9.904,6.914-14.628c3.01-5.458,6.453-10.696,9.799-15.977c1.89-2.983,2.859-3.1,6.353-2.787
		c2.894,0.259,5.872,0.11,8.767-0.226c1.966-0.228,3.385,0.199,4.401,1.72c6.783,10.142,13.586,20.291,17.685,31.798
		c0.83,2.333,1.01,4.937,1.14,7.432c0.151,2.901-1.522,5.033-3.957,6.579c-3.703,2.353-7.701,4.012-12.127,4.672
		C106.721,76.398,102.859,77.086,99.121,77.704z M92.438,38.642c-0.012,3.623,3.423,7.105,7,7.094
		c3.449-0.01,7.28-3.638,7.338-6.946c0.062-3.595-3.502-6.929-7.393-6.914C95.513,31.889,92.451,34.872,92.438,38.642z
		 M99.234,51.301c-4.027,0.049-6.926,2.914-6.866,6.788c0.058,3.638,3.325,6.76,7.075,6.76c3.652,0,7.367-3.454,7.365-6.843
		C106.807,54.36,103.294,51.25,99.234,51.301z"/>
	<path fill="#00DEFE" d="M108.6,10.045c0.033,5.685-4.412,10.27-10.029,10.342c-5.414,0.068-10.602-4.875-10.679-10.177
		C87.811,4.56,92.568-0.018,98.506,0C104.491,0.017,108.562,4.069,108.6,10.045z"/>
	<path fill="#FFFFFF" d="M98.945,65.429c-4.618-0.059-8.208-3.623-8.156-8.097c0.052-4.401,3.882-7.997,8.415-7.897
		c4.606,0.1,8.228,3.71,8.163,8.138C107.302,62.003,103.566,65.488,98.945,65.429z"/>
	<path fill="#FFFFFF" d="M98.945,46.984c-4.618-0.059-8.208-3.623-8.156-8.097c0.052-4.401,3.882-7.996,8.415-7.897
		c4.606,0.101,8.228,3.71,8.163,8.138C107.302,43.559,103.566,47.042,98.945,46.984z"/>
</g>
<polygon fill="#FFFFFF" points="121.993,164.526 111.964,161.521 103.809,153.443 91.062,153.443 83.934,158.985 81.064,164.526 
	72.775,164.526 69.361,158.985 72.877,153.443 81.092,141.64 91.062,137.491 106.633,137.812 118.079,143.282 123.124,151.009 
	127.525,158.997 "/>
<path fill="#81667A" d="M97.658,133.562c13.498,0.462,23.866,5.783,31.16,16.393c4.22,6.139,2.875,13.338-3.018,17.137
	c-5.854,3.772-13.25,2.064-17.529-4.049c-5.376-7.676-15.262-7.648-20.675,0.059c-4.24,6.034-11.345,7.712-17.306,4.087
	c-5.865-3.567-7.465-10.754-3.451-16.831C74.068,139.417,84.627,134.063,97.658,133.562z M98.106,142.372
	c-9.946,0.358-17.772,4.342-23.321,12.332c-1.221,1.758-1.689,3.59,0.404,4.946c2.109,1.366,3.586,0.217,4.859-1.547
	c9.279-12.856,26.628-12.843,35.823,0.026c1.272,1.778,2.736,2.897,4.847,1.492c2.079-1.386,1.604-3.186,0.376-4.951
	C115.607,146.768,107.866,142.81,98.106,142.372z"/>
<path stroke="#000000" stroke-width="3.6" stroke-miterlimit="10" d="M113.054,117.792c0.448,0.355,0.763,0.056,1.033-0.402
	c1.974-3.339,5.662-3.335,7.618,0.007c0.27,0.461,0.581,0.752,1.03,0.387c0.441-0.36,0.341-0.827,0.08-1.286
	c-1.167-2.053-2.812-3.081-4.889-3.194c-2.115,0.093-3.779,1.128-4.959,3.203C112.708,116.963,112.608,117.439,113.054,117.792z"/>
<path stroke="#000000" stroke-width="3.6" stroke-miterlimit="10" d="M73.054,117.792c0.448,0.355,0.763,0.056,1.033-0.402
	c1.974-3.339,5.662-3.335,7.618,0.007c0.27,0.461,0.581,0.752,1.03,0.387c0.441-0.36,0.341-0.827,0.08-1.286
	c-1.167-2.053-2.812-3.081-4.889-3.194c-2.115,0.093-3.779,1.128-4.959,3.203C72.708,116.963,72.608,117.439,73.054,117.792z"/>
<path fill="#00DEFE" d="M97.726,138.12c-7.811-0.1-13.881-6.125-13.792-13.69c0.087-7.442,6.563-13.519,14.228-13.353
	c7.788,0.17,13.91,6.273,13.802,13.76C111.854,132.329,105.54,138.22,97.726,138.12z"/>
</svg>
