<?xml version="1.0" encoding="utf-8"?>
<!-- Generator: Adobe Illustrator 16.0.4, SVG Export Plug-In . SVG Version: 6.00 Build 0)  -->
<!DOCTYPE svg PUBLIC "-//W3C//DTD SVG 1.1//EN" "http://www.w3.org/Graphics/SVG/1.1/DTD/svg11.dtd">
<svg version="1.1" id="Layer_1" xmlns="http://www.w3.org/2000/svg" xmlns:xlink="http://www.w3.org/1999/xlink" x="0px" y="0px"
	 width="103.101px" height="103.195px" viewBox="0 0 103.101 103.195" enable-background="new 0 0 103.101 103.195"
	 xml:space="preserve">
<g>
	<path fill="#0B7189" d="M3.192,97.449c-0.009-0.006-0.011-0.006-0.016-0.01C3.185,97.443,3.192,97.449,3.192,97.449z"/>
	<path fill="#0B7189" d="M3.176,97.439C3.166,97.434,3.161,97.43,3.176,97.439L3.176,97.439z"/>
	<path fill="#0B7189" d="M4.196,80.59c8.373-7.258,34.889-32.656,34.889-32.656l6.805,6.26l0.008-0.007l0.08,0.086l0.086,0.08
		l-0.008,0.007l6.261,6.805c0,0-25.399,26.516-32.655,34.89c-2.652,3.06-5.43,4.17-8.074,4.186l0,0
		c-4.08,0.141-6.696-1.085-8.372-2.778c-0.007-0.004-0.016-0.008-0.022-0.012c-0.004-0.007-0.008-0.016-0.012-0.022
		c-3.283-3.352-2.918-8.491-2.918-8.491l0.023,0.023C0.22,86.234,1.129,83.248,4.196,80.59z"/>
	<path fill="#0B7189" d="M3.192,97.449c0,0,0.006,0.008,0.01,0.016C3.199,97.461,3.198,97.459,3.192,97.449z"/>
	<path fill="#0B7189" d="M3.202,97.465C3.212,97.48,3.208,97.476,3.202,97.465L3.202,97.465z"/>
</g>
<polygon fill="#81667A" points="69.343,30.741 69.517,30.916 84.728,46.127 60.62,70.234 45.409,55.023 45.234,54.85 30.022,39.638 
	54.13,15.53 "/>
<path fill="#0B7189" d="M84.31,45.709l0.035,0.035c2.312-2.312,7.49-0.885,11.566,3.191c4.074,4.075,5.504,9.254,3.191,11.566
	L74.995,84.609l0,0c-2.312,2.312-7.49,0.883-11.566-3.192c-4.074-4.075-5.504-9.253-3.191-11.565l-0.035-0.035L84.31,45.709z"/>
<path fill="#0B7189" d="M39.512,0.911l0.035,0.035c2.312-2.312,7.49-0.883,11.564,3.191c4.076,4.076,5.506,9.254,3.193,11.567
	L30.198,39.812l0,0c-2.312,2.312-7.491,0.883-11.566-3.193c-4.075-4.074-5.505-9.252-3.192-11.565l-0.035-0.035L39.512,0.911z"/>
</svg>
