<?xml version="1.0" encoding="utf-8"?>
<!-- Generator: Adobe Illustrator 16.0.4, SVG Export Plug-In . SVG Version: 6.00 Build 0)  -->
<!DOCTYPE svg PUBLIC "-//W3C//DTD SVG 1.1//EN" "http://www.w3.org/Graphics/SVG/1.1/DTD/svg11.dtd">
<svg version="1.1" id="Layer_1" xmlns="http://www.w3.org/2000/svg" xmlns:xlink="http://www.w3.org/1999/xlink" x="0px" y="0px"
	 width="376px" height="100.833px" viewBox="0 0 376 100.833" enable-background="new 0 0 376 100.833" xml:space="preserve">
<g id="Layer_2" display="none">
	<ellipse display="inline" fill="#C144A7" cx="188" cy="97.583" rx="188" ry="20.333"/>
</g>
<path fill="#3B3923" d="M24.273,50.417v50.416c0-11.229,73.303-20.334,163.727-20.334c90.423,0,163.727,9.105,163.727,20.334V50.417
	H24.273z"/>
<path fill="#646251" d="M24.273,31.2v50.416c0-11.229,73.303-20.332,163.727-20.332c90.423,0,163.727,9.104,163.727,20.332V31.2
	H24.273z"/>
<path fill="#97968B" d="M24.273,21.204V71.62c0-11.229,73.303-20.332,163.727-20.332c90.423,0,163.727,9.104,163.727,20.332V21.204
	H24.273z"/>
<path fill="#C2C1BB" d="M24.273,9.997v50.416C24.273,49.184,97.576,40.08,188,40.08c90.423,0,163.727,9.104,163.727,20.333V9.997
	H24.273z"/>
<path fill="#FFFFFF" d="M24.273,0v50.416c0-11.229,73.303-20.332,163.727-20.332c90.423,0,163.727,9.104,163.727,20.332V0H24.273z"
	/>
<rect fill="#FFFFFF" width="24.273" height="100.833"/>
<rect x="351.727" fill="#FFFFFF" width="24.273" height="100.833"/>
</svg>
