<?xml version="1.0" encoding="utf-8"?>
<!-- Generator: Adobe Illustrator 16.0.4, SVG Export Plug-In . SVG Version: 6.00 Build 0)  -->
<!DOCTYPE svg PUBLIC "-//W3C//DTD SVG 1.1//EN" "http://www.w3.org/Graphics/SVG/1.1/DTD/svg11.dtd">
<svg version="1.1" id="Layer_1" xmlns="http://www.w3.org/2000/svg" xmlns:xlink="http://www.w3.org/1999/xlink" x="0px" y="0px"
	 width="376px" height="100.833px" viewBox="0 0 376 100.833" enable-background="new 0 0 376 100.833" xml:space="preserve">
<g id="Layer_2" display="none">
	<ellipse display="inline" fill="#C144A7" cx="188" cy="97.583" rx="188" ry="20.333"/>
</g>
<g id="Layer_2_copy">
	<g>
		<path fill="#E2A6D6" d="M188,70.749c-103.83,0-188-9.104-188-20.333v50.417h376V50.415C376,61.645,291.829,70.749,188,70.749z"/>
		<path fill="#E2A6D6" d="M0,0v50.416c0-11.229,84.17-20.332,188-20.332c103.829,0,188,9.104,188,20.332V0H0z"/>
	</g>
</g>
<g id="Layer_2_copy_2">
	<path fill="#3B3923" d="M0,50.417v50.416c0-11.229,84.17-20.334,188-20.334c103.829,0,188,9.105,188,20.334V50.417H0z"/>
	<path fill="#646251" d="M0,31.2v50.416c0-11.229,84.17-20.332,188-20.332c103.829,0,188,9.104,188,20.332V31.2H0z"/>
	<path fill="#97968B" d="M0,21.204V71.62c0-11.229,84.17-20.332,188-20.332c103.829,0,188,9.104,188,20.332V21.204H0z"/>
	<path fill="#C2C1BB" d="M0,9.997v50.416c0-11.229,84.17-20.333,188-20.333c103.829,0,188,9.104,188,20.333V9.997H0z"/>
	<path fill="#FFFFFF" d="M0,0v50.416c0-11.229,84.17-20.332,188-20.332c103.829,0,188,9.104,188,20.332V0H0z"/>
	<path fill="#FFFFFF" d="M188,70.749c-103.83,0-188-9.104-188-20.333v50.417h376V50.415C376,61.645,291.829,70.749,188,70.749z"/>
</g>
</svg>
