<?xml version="1.0" encoding="utf-8"?>
<!-- Generator: Adobe Illustrator 16.0.4, SVG Export Plug-In . SVG Version: 6.00 Build 0)  -->
<!DOCTYPE svg PUBLIC "-//W3C//DTD SVG 1.1//EN" "http://www.w3.org/Graphics/SVG/1.1/DTD/svg11.dtd">
<svg version="1.1" id="Layer_1" xmlns="http://www.w3.org/2000/svg" xmlns:xlink="http://www.w3.org/1999/xlink" x="0px" y="0px"
	 width="361.486px" height="271.312px" viewBox="0 0 361.486 271.312" enable-background="new 0 0 361.486 271.312"
	 xml:space="preserve">
<path fill="#81667A" d="M334.586,61.183l-116.344,49.66l19.43,45.519l116.344-49.66c3.554-1.517,2.157-12.765-3.281-25.506
	C345.296,68.455,338.139,59.667,334.586,61.183z"/>
<path fill="#0B7189" d="M276.958,0.3c-0.05,0.021-0.005,0.011-0.004,0.013l0.147,0.348L87.682,81.513l80.852,189.42l189.29-80.797
	c9.685-4.133-0.486-49.898-22.897-102.402C312.515,35.229,286.641-3.833,276.958,0.3z"/>
<ellipse transform="matrix(0.9197 -0.3926 0.3926 0.9197 -58.9101 64.4243)" fill="#0A505B" cx="128.059" cy="176.244" rx="19.067" ry="103.366"/>
<path fill="#81667A" d="M118.199,153.546L2.393,202.978l19.429,45.52l115.806-49.432c3.554-1.517,2.158-12.764-3.281-25.506
	C128.909,160.817,121.752,152.029,118.199,153.546z"/>
<ellipse transform="matrix(0.9197 -0.3926 0.3926 0.9197 -87.7411 22.7569)" fill="#51404E" cx="11.764" cy="225.883" rx="6.996" ry="25.085"/>
</svg>
